<svg version="1.1" id="Layer_1" xmlns="http://www.w3.org/2000/svg" xmlns:xlink="http://www.w3.org/1999/xlink" x="0px" y="0px"
    viewBox="0 0 1000 275.65" style="enable-background:new 0 0 1000 275.65;" xml:space="preserve">
  <style type="text/css">
    .st0{fill:#FFFFFF;}
    .st1{fill:#EDDBF5;}
    .st2{fill:#A3F2E8;}
    .st3{fill:#F2EB03;}
    .st4{fill:#00CCC2;}
    .st5{fill:#99B8F2;}
    .st6{fill:#F50003;}
    .st7{fill:#006659;}
    .st8{fill:#FFBAC4;}
    .st9{fill:#854FAB;}
    .st10{fill:#00EB73;}
    .st11{fill:#F2D6B8;}
    .st12{fill:#4236AB;}
    .st13{fill:#FF753B;}
  </style>
  <g>
    <g>
      <polygon class="st0" points="330.72,150.6 354.68,150.6 376.18,227.56 403.31,150.6 420.04,150.6 447.17,227.56 468.68,150.6
        492.63,150.6 455.8,273.89 439.07,273.89 411.59,195.86 384.29,273.89 367.56,273.89 		"/>
      <path class="st0" d="M550.26,220.16c-0.7-7.57-7.57-14.97-16.91-14.97c-9.51,0-17.26,7.22-18.32,14.97H550.26z M571.57,260.32
        c-8.28,9.86-21.84,15.33-35.05,15.33c-25.54,0-44.74-17.62-44.74-44.39c0-23.78,16.21-44.56,41.57-44.56
        c23.6,0,40.33,19.9,40.33,43.68c0,2.29-0.18,4.58-0.53,6.52h-59.18c1.23,11.98,10.92,20.26,23.08,20.26
        c9.69,0,17.43-5.46,21.49-9.86L571.57,260.32z"/>
      <path class="st0" d="M642.68,220.16c-0.7-7.57-7.57-14.97-16.91-14.97c-9.51,0-17.26,7.22-18.32,14.97H642.68z M664,260.32
        c-8.28,9.86-21.84,15.33-35.05,15.33c-25.54,0-44.74-17.62-44.74-44.39c0-23.78,16.21-44.56,41.57-44.56
        c23.6,0,40.33,19.9,40.33,43.68c0,2.29-0.18,4.58-0.53,6.52H606.4c1.23,11.98,10.92,20.26,23.08,20.26
        c9.69,0,17.43-5.46,21.49-9.86L664,260.32z"/>
      <polygon class="st0" points="724.52,226.86 771.54,273.89 740.72,273.89 704.61,236.9 704.61,273.89 681.72,273.89 681.72,148.83
        704.61,148.83 704.61,216.12 734.03,188.46 766.26,188.46 		"/>
    </g>
    <g>
      <path class="st0" d="M506.92,73.1c-0.7-7.58-7.57-14.97-16.91-14.97c-9.51,0-17.26,7.22-18.32,14.97H506.92z M528.23,113.25
        c-8.28,9.86-21.84,15.33-35.05,15.33c-25.54,0-44.74-17.62-44.74-44.39c0-23.78,16.21-44.56,41.57-44.56
        c23.6,0,40.33,19.9,40.33,43.68c0,2.29-0.17,4.58-0.53,6.51h-59.18c1.23,11.98,10.92,20.26,23.07,20.26
        c9.69,0,17.44-5.46,21.49-9.86L528.23,113.25z"/>
      <path class="st0" d="M605.3,21.13c-1.93-0.53-4.75-0.88-6.87-0.88c-5.64,0-10.04,1.58-12.86,4.93c-1.94,2.46-3.17,5.64-3.17,13.56
        v2.64h26.42v19.38H582.4v66.05h-22.89V60.77h-22.02V41.39h22.02v-3.52c0-13.74,3.17-22.01,9.16-27.83
        C574.65,4.23,583.64,0,595.26,0c4.58,0,8.81,0.35,13.56,1.58L605.3,21.13z"/>
      <path class="st0" d="M630.46,114.84c-5.46-6.69-8.63-15.5-8.63-28.18V41.39h22.9v46.15c0,7.75,1.59,11.63,4.23,14.62
        c3.52,3.88,8.46,5.29,12.86,5.29c9.69,0,16.73-6.52,19.9-10.57V41.39h22.9v85.43h-22.02v-13.21c-0.35,7.04-9.33,14.97-23.07,14.97
        C647.72,128.58,637.15,123.12,630.46,114.84"/>
      <path class="st0" d="M787.17,71.33c-4.75-6.34-12.33-10.57-21.14-10.57c-13.39,0-22.01,11.09-22.01,23.42
        c0,13.39,9.68,23.25,22.54,23.25c8.63,0,16.2-4.23,20.61-10.57V71.33z M787.17,114.13c-0.53,6.52-8.1,14.44-22.9,14.44
        c-12.68,0-24.66-5.64-32.23-14.44c-6.69-7.75-10.92-18.32-10.92-29.94c0-25.19,18.67-44.56,41.92-44.56
        c16.2,0,24.66,8.45,25.01,14.97V41.39h22.01v80.67c0,15.32-2.64,24.48-7.75,31.7c-7.75,10.75-21.49,17.08-37.87,17.08
        c-16.73,0-32.58-7.75-41.04-17.61l14.44-14.97c4.58,4.94,12.51,12.33,26.6,12.33c7.4,0,13.56-2.29,17.44-6.87
        c3.52-3.87,5.29-9.16,5.29-20.08V114.13z"/>
      <path class="st0" d="M884.15,73.1c-0.7-7.58-7.57-14.97-16.91-14.97c-9.51,0-17.26,7.22-18.32,14.97H884.15z M905.46,113.25
        c-8.28,9.86-21.84,15.33-35.05,15.33c-25.54,0-44.74-17.62-44.74-44.39c0-23.78,16.21-44.56,41.57-44.56
        c23.6,0,40.33,19.9,40.33,43.68c0,2.29-0.18,4.58-0.53,6.51h-59.18c1.23,11.98,10.92,20.26,23.08,20.26
        c9.69,0,17.43-5.46,21.49-9.86L905.46,113.25z"/>
      <path class="st0" d="M976.57,73.1c-0.7-7.58-7.57-14.97-16.91-14.97c-9.51,0-17.26,7.22-18.32,14.97H976.57z M997.89,113.25
        c-8.28,9.86-21.84,15.33-35.05,15.33c-25.54,0-44.74-17.62-44.74-44.39c0-23.78,16.21-44.56,41.57-44.56
        c23.6,0,40.33,19.9,40.33,43.68c0,2.29-0.18,4.58-0.53,6.51h-59.18c1.23,11.98,10.92,20.26,23.08,20.26
        c9.69,0,17.43-5.46,21.49-9.86L997.89,113.25z"/>
      <path class="st0" d="M358.53,55.48v-4.4V24.66h27.78h1.76c8.1,0,12.15,1.94,14.97,4.94c2.64,2.82,4.05,6.51,4.05,10.57
        c0,4.05-1.41,7.57-4.05,10.39c-2.82,3-6.87,4.93-14.97,4.93H358.53z M405.87,74.6c6.51-1.81,11.42-4.8,15.32-8.91
        c6.16-6.34,9.69-15.86,9.69-25.54c0-9.69-3.53-19.2-9.69-25.54c-6.87-7.22-16.2-11.1-32.06-11.1h-1.41h-52.97v123.29h23.78v-50.2
        h20.22l40.32,50.2h29.41L405.87,74.6z"/>
    </g>
    <circle class="st1" cx="139.51" cy="91.18" r="26.94"/>
    <circle class="st2" cx="139.51" cy="26.94" r="26.94"/>
    <circle class="st3" cx="139.51" cy="191.31" r="26.94"/>
    <circle class="st4" cx="189.58" cy="141.25" r="26.94"/>
    <circle class="st5" cx="89.45" cy="141.25" r="26.94"/>

      <ellipse transform="matrix(0.766 -0.6428 0.6428 0.766 -19.0562 55.0087)" class="st6" cx="66.04" cy="53.68" rx="26.94" ry="26.94"/>

      <ellipse transform="matrix(0.1736 -0.9848 0.9848 0.1736 -97.2861 126.8517)" class="st7" cx="26.94" cy="121.4" rx="26.94" ry="26.94"/>
    <ellipse transform="matrix(0.866 -0.5 0.5 0.866 -93.7698 46.8414)" class="st8" cx="40.52" cy="198.4" rx="26.94" ry="26.94"/>

      <ellipse transform="matrix(0.342 -0.9397 0.9397 0.342 -167.5874 257.9736)" class="st9" cx="100.42" cy="248.66" rx="26.94" ry="26.94"/>

      <ellipse transform="matrix(0.9397 -0.342 0.342 0.9397 -74.2742 76.0832)" class="st10" cx="178.61" cy="248.66" rx="26.94" ry="26.94"/>
    <ellipse transform="matrix(0.5 -0.866 0.866 0.5 -52.5654 305.7494)" class="st11" cx="238.5" cy="198.4" rx="26.94" ry="26.94"/>

      <ellipse transform="matrix(0.9848 -0.1736 0.1736 0.9848 -17.2506 45.6178)" class="st12" cx="252.08" cy="121.4" rx="26.94" ry="26.94"/>

      <ellipse transform="matrix(0.6428 -0.766 0.766 0.6428 34.9583 182.3335)" class="st13" cx="212.99" cy="53.68" rx="26.94" ry="26.94"/>
  </g>
  </svg>
