<?xml version="1.0" encoding="UTF-8" standalone="no"?>
<!DOCTYPE svg PUBLIC "-//W3C//DTD SVG 1.1//EN" "http://www.w3.org/Graphics/SVG/1.1/DTD/svg11.dtd">
<svg width="100%" height="100%" viewBox="0 0 2600 1950" version="1.1" xmlns="http://www.w3.org/2000/svg" xmlns:xlink="http://www.w3.org/1999/xlink" xml:space="preserve" xmlns:serif="http://www.serif.com/" style="fill-rule:evenodd;clip-rule:evenodd;stroke-linecap:round;stroke-linejoin:round;stroke-miterlimit:1.5;">
    <g transform="matrix(2.45446,0,0,1.60199,-1890.8,-131.038)">
        <path d="M1508.33,623L1091.67,623L1214.26,217.676L1385.75,217.676L1508.33,623Z" style="fill:rgb(251,210,194);"/>
    </g>
    <g transform="matrix(1.03238,2.22678,-1.45339,0.673819,1022.16,-2353.41)">
        <path d="M1508.33,623L1091.67,623L1214.26,217.676L1385.75,217.676L1508.33,623Z" style="fill:rgb(251,210,194);"/>
    </g>
    <g transform="matrix(-1.80368,-1.66467,1.0865,-1.17723,2844.79,4064.29)">
        <path d="M1508.33,623L1091.67,623L1214.26,217.676L1385.75,217.676L1508.33,623Z" style="fill:rgb(251,210,194);"/>
    </g>
    <g transform="matrix(1.02813,-2.22875,1.45467,0.671047,-1101.47,3439.52)">
        <path d="M1508.33,623L1091.67,623L1214.26,217.676L1385.75,217.676L1508.33,623Z" style="fill:rgb(251,210,194);"/>
    </g>
    <g transform="matrix(-1.81351,1.65395,-1.07951,-1.18365,4444.03,-253.672)">
        <path d="M1508.33,623L1091.67,623L1214.26,217.676L1385.75,217.676L1508.33,623Z" style="fill:rgb(251,210,194);"/>
    </g>
    <g transform="matrix(1,0,0,1,165.195,66.9807)">
        <circle cx="1134.81" cy="968.019" r="535.325" style="fill:rgb(251,210,194);stroke:rgb(241,101,42);stroke-width:7px;"/>
    </g>
    <g>
        <g transform="matrix(0.389156,0,0,0.380639,858.384,-150.79)">
            <circle cx="1134.81" cy="968.019" r="535.325" style="fill:rgb(251,210,194);stroke:rgb(241,101,42);stroke-width:18.19px;"/>
        </g>
        <g transform="matrix(1,0,0,1,965.811,-315.817)">
            <text x="212.064px" y="576.122px" style="font-family:'ArialMT', 'Arial', sans-serif;font-size:32px;">T<tspan x="230.423px 241.079px " y="576.122px 576.122px ">ru</tspan>stee contacts:</text>
            <text x="226.236px" y="609.169px" style="font-family:'ArialMT', 'Arial', sans-serif;font-size:32px;">A</text>
            <text x="248.22px" y="609.169px" style="font-family:'ArialMT', 'Arial', sans-serif;font-size:32px;">nn Goodridge</text>
            <text x="174.142px" y="642.216px" style="font-family:'ArialMT', 'Arial', sans-serif;font-size:32px;">(Employment), Monica</text>
            <text x="197.228px" y="675.263px" style="font-family:'ArialMT', 'Arial', sans-serif;font-size:32px;">Poulter (Education)</text>
        </g>
        <g transform="matrix(1,0,0,1,412,-569.965)">
            <text x="738.981px" y="701.146px" style="font-family:'Arial-BoldMT', 'Arial', sans-serif;font-weight:700;font-size:36px;">English language</text>
            <text x="699.993px" y="738.324px" style="font-family:'Arial-BoldMT', 'Arial', sans-serif;font-weight:700;font-size:36px;">teaching and support,</text>
            <text x="763.978px" y="775.501px" style="font-family:'Arial-BoldMT', 'Arial', sans-serif;font-weight:700;font-size:36px;">&amp; employment</text>
        </g>
    </g>
    <g transform="matrix(1,0,0,1,39.3131,-71.0361)">
        <g transform="matrix(0.389156,0,0,0.380639,1380.37,1353.89)">
            <circle cx="1134.81" cy="968.019" r="535.325" style="fill:rgb(251,210,194);stroke:rgb(241,101,42);stroke-width:18.19px;"/>
        </g>
        <g transform="matrix(1,0,0,1,1487.8,1208.86)">
            <text x="212.064px" y="573.122px" style="font-family:'ArialMT', 'Arial', sans-serif;font-size:32px;">T<tspan x="230.423px 241.079px " y="573.122px 573.122px ">ru</tspan>stee contacts:</text>
            <text x="266.61px" y="606.169px" style="font-family:'ArialMT', 'Arial', sans-serif;font-size:32px;">Dan Ellis,</text>
            <text x="210.899px" y="639.216px" style="font-family:'ArialMT', 'Arial', sans-serif;font-size:32px;">A</text>
            <text x="232.243px" y="639.216px" style="font-family:'ArialMT', 'Arial', sans-serif;font-size:32px;">d</text>
            <text x="249.4px" y="639.216px" style="font-family:'ArialMT', 'Arial', sans-serif;font-size:32px;">rian Matthews,</text>
            <text x="238.165px" y="672.263px" style="font-family:'ArialMT', 'Arial', sans-serif;font-size:32px;">Emma Briggs</text>
        </g>
        <g transform="matrix(1,0,0,1,933.988,954.714)">
            <text x="758.985px" y="738.324px" style="font-family:'Arial-BoldMT', 'Arial', sans-serif;font-weight:700;font-size:36px;">Family support</text>
        </g>
    </g>
    <g transform="matrix(1,0,0,1,-78.6161,-71.0361)">
        <g transform="matrix(0.389156,0,0,0.380639,368.387,1353.89)">
            <circle cx="1134.81" cy="968.019" r="535.325" style="fill:rgb(251,210,194);stroke:rgb(241,101,42);stroke-width:18.19px;"/>
        </g>
        <g transform="matrix(1,0,0,1,475.814,1208.86)">
            <text x="212.064px" y="578.122px" style="font-family:'ArialMT', 'Arial', sans-serif;font-size:32px;">T<tspan x="230.423px 241.079px " y="578.122px 578.122px ">ru</tspan>stee contacts:</text>
            <text x="198.72px" y="611.169px" style="font-family:'ArialMT', 'Arial', sans-serif;font-size:32px;">Catharine W<tspan x="375.376px 393.173px " y="611.169px 611.169px ">al</tspan>ston,</text>
            <text x="238.438px" y="644.216px" style="font-family:'ArialMT', 'Arial', sans-serif;font-size:32px;">Sue Spence</text>
            <text x="412.798px" y="644.216px" style="font-family:'ArialMT', 'Arial', sans-serif;font-size:32px;">r</text>
            <text x="421.048px" y="644.216px" style="font-family:'ArialMT', 'Arial', sans-serif;font-size:32px;">,</text>
            <text x="271.056px" y="677.263px" style="font-family:'ArialMT', 'Arial', sans-serif;font-size:32px;">Dan Ellis</text>
        </g>
        <g transform="matrix(1,0,0,1,-77.9974,954.714)">
            <text x="741.987px" y="719.735px" style="font-family:'Arial-BoldMT', 'Arial', sans-serif;font-weight:700;font-size:36px;">Communications</text>
            <text x="775.161px" y="756.913px" style="font-family:'Arial-BoldMT', 'Arial', sans-serif;font-weight:700;font-size:36px;">an</text>
            <text x="817.173px" y="756.913px" style="font-family:'Arial-BoldMT', 'Arial', sans-serif;font-weight:700;font-size:36px;">d</text>
            <text x="848.805px" y="756.913px" style="font-family:'Arial-BoldMT', 'Arial', sans-serif;font-weight:700;font-size:36px;">outreac</text>
            <text x="978.848px" y="756.913px" style="font-family:'Arial-BoldMT', 'Arial', sans-serif;font-weight:700;font-size:36px;">h</text>
        </g>
    </g>
    <g transform="matrix(1,0,0,1,0,-3)">
        <g transform="matrix(0.389156,0,0,0.380639,111.387,322.994)">
            <circle cx="1134.81" cy="968.019" r="535.325" style="fill:rgb(251,210,194);stroke:rgb(241,101,42);stroke-width:18.19px;"/>
        </g>
        <g transform="matrix(1,0,0,1,218.814,177.967)">
            <text x="212.064px" y="579.146px" style="font-family:'ArialMT', 'Arial', sans-serif;font-size:32px;">T<tspan x="230.423px 241.079px " y="579.146px 579.146px ">ru</tspan>stee contacts:</text>
            <text x="238.118px" y="612.193px" style="font-family:'ArialMT', 'Arial', sans-serif;font-size:32px;">Sue Spencer<tspan x="421.368px " y="612.193px ">,</tspan></text>
            <text x="276.392px" y="645.24px" style="font-family:'ArialMT', 'Arial', sans-serif;font-size:32px;">Jo Birch</text>
        </g>
        <g transform="matrix(1,0,0,1,-334.997,-76.1813)">
            <text x="807.967px" y="719.735px" style="font-family:'Arial-BoldMT', 'Arial', sans-serif;font-weight:700;font-size:36px;">Activities</text>
            <text x="790.986px" y="756.913px" style="font-family:'Arial-BoldMT', 'Arial', sans-serif;font-weight:700;font-size:36px;">and culture</text>
        </g>
    </g>
    <g transform="matrix(1,0,0,1,4.29706,-1.5)">
        <g transform="matrix(0.389156,0,0,0.380639,1596.9,322.994)">
            <circle cx="1134.81" cy="968.019" r="535.325" style="fill:rgb(251,210,194);stroke:rgb(241,101,42);stroke-width:18.19px;"/>
        </g>
        <g transform="matrix(1,0,0,1,1724.33,136.967)">
            <text x="192.064px" y="587.099px" style="font-family:'ArialMT', 'Arial', sans-serif;font-size:32px;">T<tspan x="210.423px 221.079px " y="587.099px 587.099px ">ru</tspan>stee contacts:</text>
            <text x="200.36px" y="620.146px" style="font-family:'ArialMT', 'Arial', sans-serif;font-size:32px;">Dan Ellis, Robin</text>
            <text x="163.618px" y="653.193px" style="font-family:'ArialMT', 'Arial', sans-serif;font-size:32px;">T<tspan x="181.978px 199.775px " y="653.193px 653.193px ">ur</tspan>ner<tspan x="254.915px 263.806px " y="653.193px 653.193px ">, </tspan>Emma Baker<tspan x="455.868px " y="653.193px ">,</tspan></text>
            <text x="171.915px" y="686.24px" style="font-family:'ArialMT', 'Arial', sans-serif;font-size:32px;">Heidi Radke, Emma</text>
            <text x="268.837px" y="719.286px" style="font-family:'ArialMT', 'Arial', sans-serif;font-size:32px;">Briggs</text>
        </g>
        <g transform="matrix(1,0,0,1,1150.52,-76.1813)">
            <text x="755.979px" y="697.735px" style="font-family:'Arial-BoldMT', 'Arial', sans-serif;font-weight:700;font-size:36px;">Operations and</text>
            <text x="763.986px" y="734.913px" style="font-family:'Arial-BoldMT', 'Arial', sans-serif;font-weight:700;font-size:36px;">administration</text>
        </g>
    </g>
    <g transform="matrix(1,0,0,1,734.093,680.194)">
        <text x="159.754px" y="595.247px" style="font-family:'ArialMT', 'Arial', sans-serif;font-size:48px;">Governance</text>
    </g>
    <g transform="matrix(1,0,0,1,835.5,804.418)">
        <text x="163.773px" y="595.247px" style="font-family:'ArialMT', 'Arial', sans-serif;font-size:48px;">Compliance</text>
    </g>
    <g transform="matrix(1,0,0,1,680.093,344.587)">
        <text x="162.754px" y="595.247px" style="font-family:'ArialMT', 'Arial', sans-serif;font-size:48px;">Council liaison</text>
    </g>
    <g transform="matrix(1,0,0,1,1074.65,892.111)">
        <text x="228.121px" y="595.247px" style="font-family:'ArialMT', 'Arial', sans-serif;font-size:48px;">Strategy</text>
    </g>
    <g transform="matrix(1,0,0,1,970.013,45.3298)">
        <text x="174.719px" y="595.247px" style="font-family:'ArialMT', 'Arial', sans-serif;font-size:48px;">Safeguarding</text>
    </g>
    <g transform="matrix(1,0,0,1,1118,344.587)">
        <text x="170.551px" y="595.247px" style="font-family:'ArialMT', 'Arial', sans-serif;font-size:48px;">Strategic partnerships</text>
    </g>
    <g transform="matrix(1,0,0,1,729.606,177.652)">
        <text x="176.747px" y="592.397px" style="font-family:'ArialMT', 'Arial', sans-serif;font-size:48px;">Legal &amp; ethical</text>
        <text x="176.782px" y="641.968px" style="font-family:'ArialMT', 'Arial', sans-serif;font-size:48px;">responsibilities</text>
    </g>
    <g transform="matrix(1,0,0,1,1148.63,177.652)">
        <text x="284.861px" y="592.397px" style="font-family:'ArialMT', 'Arial', sans-serif;font-size:48px;">Overall</text>
        <text x="159.4px" y="641.968px" style="font-family:'ArialMT', 'Arial', sans-serif;font-size:48px;">organisational help</text>
    </g>
    <g transform="matrix(1,0,0,1,680.093,570.049)">
        <text x="168.699px" y="595.247px" style="font-family:'ArialMT', 'Arial', sans-serif;font-size:48px;">Financial management</text>
    </g>
    <g transform="matrix(1,0,0,1,1111,650.533)">
        <text x="191.387px" y="595.247px" style="font-family:'ArialMT', 'Arial', sans-serif;font-size:48px;">Policies &amp; procedure</text>
    </g>
    <g transform="matrix(1,0,0,1,1111,756.352)">
        <text x="165.809px" y="595.247px" style="font-family:'ArialMT', 'Arial', sans-serif;font-size:48px;">Donor stewardship</text>
    </g>
    <g transform="matrix(1,0,0,1,191.5,337)">
        <text x="700.406px" y="732.359px" style="font-family:'Arial-BoldMT', 'Arial', sans-serif;font-weight:700;font-size:96px;">Board of T<tspan x="1175.06px 1212.42px " y="732.359px 732.359px ">ru</tspan>stees</text>
    </g>
</svg>
