<?xml version="1.0" encoding="UTF-8" standalone="no"?>
<!DOCTYPE svg PUBLIC "-//W3C//DTD SVG 1.1//EN" "http://www.w3.org/Graphics/SVG/1.1/DTD/svg11.dtd">
<svg width="100%" height="100%" viewBox="0 0 1400 400" version="1.1" xmlns="http://www.w3.org/2000/svg" xmlns:xlink="http://www.w3.org/1999/xlink" xml:space="preserve" xmlns:serif="http://www.serif.com/" style="fill-rule:evenodd;clip-rule:evenodd;stroke-linejoin:round;stroke-miterlimit:2;">
    <g transform="matrix(1,0,0,1,200,62.175)">
        <g transform="matrix(1,0,0,1,-200,-62.175)">
            <rect x="0" y="0" width="1400" height="400" style="fill:rgb(255,186,196);"/>
        </g>
        <g>
            <path d="M330.72,150.6L354.68,150.6L376.18,227.56L403.31,150.6L420.04,150.6L447.17,227.56L468.68,150.6L492.63,150.6L455.8,273.89L439.07,273.89L411.59,195.86L384.29,273.89L367.56,273.89L330.72,150.6Z" style="fill:white;fill-rule:nonzero;"/>
            <path d="M550.26,220.16C549.56,212.59 542.69,205.19 533.35,205.19C523.84,205.19 516.09,212.41 515.03,220.16L550.26,220.16ZM571.57,260.32C563.29,270.18 549.73,275.65 536.52,275.65C510.98,275.65 491.78,258.03 491.78,231.26C491.78,207.48 507.99,186.7 533.35,186.7C556.95,186.7 573.68,206.6 573.68,230.38C573.68,232.67 573.5,234.96 573.15,236.9L513.97,236.9C515.2,248.88 524.89,257.16 537.05,257.16C546.74,257.16 554.48,251.7 558.54,247.3L571.57,260.32Z" style="fill:white;fill-rule:nonzero;"/>
            <path d="M642.68,220.16C641.98,212.59 635.11,205.19 625.77,205.19C616.26,205.19 608.51,212.41 607.45,220.16L642.68,220.16ZM664,260.32C655.72,270.18 642.16,275.65 628.95,275.65C603.41,275.65 584.21,258.03 584.21,231.26C584.21,207.48 600.42,186.7 625.78,186.7C649.38,186.7 666.11,206.6 666.11,230.38C666.11,232.67 665.93,234.96 665.58,236.9L606.4,236.9C607.63,248.88 617.32,257.16 629.48,257.16C639.17,257.16 646.91,251.7 650.97,247.3L664,260.32Z" style="fill:white;fill-rule:nonzero;"/>
            <path d="M724.52,226.86L771.54,273.89L740.72,273.89L704.61,236.9L704.61,273.89L681.72,273.89L681.72,148.83L704.61,148.83L704.61,216.12L734.03,188.46L766.26,188.46L724.52,226.86Z" style="fill:white;fill-rule:nonzero;"/>
        </g>
        <g>
            <path d="M506.92,73.1C506.22,65.52 499.35,58.13 490.01,58.13C480.5,58.13 472.75,65.35 471.69,73.1L506.92,73.1ZM528.23,113.25C519.95,123.11 506.39,128.58 493.18,128.58C467.64,128.58 448.44,110.96 448.44,84.19C448.44,60.41 464.65,39.63 490.01,39.63C513.61,39.63 530.34,59.53 530.34,83.31C530.34,85.6 530.17,87.89 529.81,89.82L470.63,89.82C471.86,101.8 481.55,110.08 493.7,110.08C503.39,110.08 511.14,104.62 515.19,100.22L528.23,113.25Z" style="fill:white;fill-rule:nonzero;"/>
            <path d="M605.3,21.13C603.37,20.6 600.55,20.25 598.43,20.25C592.79,20.25 588.39,21.83 585.57,25.18C583.63,27.64 582.4,30.82 582.4,38.74L582.4,41.38L608.82,41.38L608.82,60.76L582.4,60.76L582.4,126.81L559.51,126.81L559.51,60.77L537.49,60.77L537.49,41.39L559.51,41.39L559.51,37.87C559.51,24.13 562.68,15.86 568.67,10.04C574.65,4.23 583.64,0 595.26,0C599.84,0 604.07,0.35 608.82,1.58L605.3,21.13Z" style="fill:white;fill-rule:nonzero;"/>
            <path d="M630.46,114.84C625,108.15 621.83,99.34 621.83,86.66L621.83,41.39L644.73,41.39L644.73,87.54C644.73,95.29 646.32,99.17 648.96,102.16C652.48,106.04 657.42,107.45 661.82,107.45C671.51,107.45 678.55,100.93 681.72,96.88L681.72,41.39L704.62,41.39L704.62,126.82L682.6,126.82L682.6,113.61C682.25,120.65 673.27,128.58 659.53,128.58C647.72,128.58 637.15,123.12 630.46,114.84" style="fill:white;fill-rule:nonzero;"/>
            <path d="M787.17,71.33C782.42,64.99 774.84,60.76 766.03,60.76C752.64,60.76 744.02,71.85 744.02,84.18C744.02,97.57 753.7,107.43 766.56,107.43C775.19,107.43 782.76,103.2 787.17,96.86L787.17,71.33ZM787.17,114.13C786.64,120.65 779.07,128.57 764.27,128.57C751.59,128.57 739.61,122.93 732.04,114.13C725.35,106.38 721.12,95.81 721.12,84.19C721.12,59 739.79,39.63 763.04,39.63C779.24,39.63 787.7,48.08 788.05,54.6L788.05,41.39L810.06,41.39L810.06,122.06C810.06,137.38 807.42,146.54 802.31,153.76C794.56,164.51 780.82,170.84 764.44,170.84C747.71,170.84 731.86,163.09 723.4,153.23L737.84,138.26C742.42,143.2 750.35,150.59 764.44,150.59C771.84,150.59 778,148.3 781.88,143.72C785.4,139.85 787.17,134.56 787.17,123.64L787.17,114.13Z" style="fill:white;fill-rule:nonzero;"/>
            <path d="M884.15,73.1C883.45,65.52 876.58,58.13 867.24,58.13C857.73,58.13 849.98,65.35 848.92,73.1L884.15,73.1ZM905.46,113.25C897.18,123.11 883.62,128.58 870.41,128.58C844.87,128.58 825.67,110.96 825.67,84.19C825.67,60.41 841.88,39.63 867.24,39.63C890.84,39.63 907.57,59.53 907.57,83.31C907.57,85.6 907.39,87.89 907.04,89.82L847.86,89.82C849.09,101.8 858.78,110.08 870.94,110.08C880.63,110.08 888.37,104.62 892.43,100.22L905.46,113.25Z" style="fill:white;fill-rule:nonzero;"/>
            <path d="M976.57,73.1C975.87,65.52 969,58.13 959.66,58.13C950.15,58.13 942.4,65.35 941.34,73.1L976.57,73.1ZM997.89,113.25C989.61,123.11 976.05,128.58 962.84,128.58C937.3,128.58 918.1,110.96 918.1,84.19C918.1,60.41 934.31,39.63 959.67,39.63C983.27,39.63 1000,59.53 1000,83.31C1000,85.6 999.82,87.89 999.47,89.82L940.29,89.82C941.52,101.8 951.21,110.08 963.37,110.08C973.06,110.08 980.8,104.62 984.86,100.22L997.89,113.25Z" style="fill:white;fill-rule:nonzero;"/>
            <path d="M358.53,55.49L358.53,24.66L388.07,24.66C396.17,24.66 400.22,26.6 403.04,29.6C405.68,32.42 407.09,36.11 407.09,40.17C407.09,44.22 405.68,47.74 403.04,50.56C400.22,53.56 396.17,55.49 388.07,55.49L358.53,55.49ZM405.87,74.6C412.38,72.79 417.29,69.8 421.19,65.69C427.35,59.35 430.88,49.83 430.88,40.15C430.88,30.46 427.35,20.95 421.19,14.61C414.32,7.39 404.99,3.51 389.13,3.51L334.75,3.51L334.75,126.8L358.53,126.8L358.53,76.6L378.75,76.6L419.07,126.8L448.48,126.8L405.87,74.6Z" style="fill:white;fill-rule:nonzero;"/>
        </g>
        <circle cx="139.51" cy="91.18" r="26.94" style="fill:rgb(237,219,245);"/>
        <circle cx="139.51" cy="26.94" r="26.94" style="fill:rgb(163,242,232);"/>
        <circle cx="139.51" cy="191.31" r="26.94" style="fill:rgb(242,235,3);"/>
        <circle cx="189.58" cy="141.25" r="26.94" style="fill:rgb(0,204,194);"/>
        <circle cx="89.45" cy="141.25" r="26.94" style="fill:rgb(153,184,242);"/>
        <g transform="matrix(0.766,-0.6428,0.6428,0.766,-19.0562,55.0087)">
            <circle cx="66.04" cy="53.68" r="26.94" style="fill:rgb(245,0,3);"/>
        </g>
        <g transform="matrix(0.1736,-0.9848,0.9848,0.1736,-97.2861,126.852)">
            <circle cx="26.94" cy="121.4" r="26.94" style="fill:rgb(0,102,89);"/>
        </g>
        <g transform="matrix(0.866,-0.5,0.5,0.866,-93.7698,46.8414)">
            <circle cx="40.52" cy="198.4" r="26.94" style="fill:rgb(255,140,157);"/>
        </g>
        <g transform="matrix(0.342,-0.9397,0.9397,0.342,-167.587,257.974)">
            <circle cx="100.42" cy="248.66" r="26.94" style="fill:rgb(133,79,171);"/>
        </g>
        <g transform="matrix(0.9397,-0.342,0.342,0.9397,-74.2742,76.0832)">
            <circle cx="178.61" cy="248.66" r="26.94" style="fill:rgb(0,235,115);"/>
        </g>
        <g transform="matrix(0.5,-0.866,0.866,0.5,-52.5654,305.749)">
            <circle cx="238.5" cy="198.4" r="26.94" style="fill:rgb(242,214,184);"/>
        </g>
        <g transform="matrix(0.9848,-0.1736,0.1736,0.9848,-17.2506,45.6178)">
            <circle cx="252.08" cy="121.4" r="26.94" style="fill:rgb(66,54,171);"/>
        </g>
        <g transform="matrix(0.6428,-0.766,0.766,0.6428,34.9583,182.333)">
            <circle cx="212.99" cy="53.68" r="26.94" style="fill:rgb(255,117,59);"/>
        </g>
    </g>
</svg>
